<svg width="18" height="20" viewBox="0 0 18 20" fill="none" xmlns="http://www.w3.org/2000/svg">
<path d="M9 0C13.9707 0 18 4.477 18 10C18 15.523 13.9707 20 9 20C4.0293 20 0 15.523 0 10C0 4.477 4.0293 0 9 0ZM9 2C7.09044 2 5.25909 2.84285 3.90883 4.34315C2.55857 5.84344 1.8 7.87827 1.8 10C1.8 12.1217 2.55857 14.1566 3.90883 15.6569C5.25909 17.1571 7.09044 18 9 18C10.9096 18 12.7409 17.1571 14.0912 15.6569C15.4414 14.1566 16.2 12.1217 16.2 10C16.2 7.87827 15.4414 5.84344 14.0912 4.34315C12.7409 2.84285 10.9096 2 9 2ZM9 14C9.23869 14 9.46761 14.1054 9.6364 14.2929C9.80518 14.4804 9.9 14.7348 9.9 15C9.9 15.2652 9.80518 15.5196 9.6364 15.7071C9.46761 15.8946 9.23869 16 9 16C8.76131 16 8.53239 15.8946 8.3636 15.7071C8.19482 15.5196 8.1 15.2652 8.1 15C8.1 14.7348 8.19482 14.4804 8.3636 14.2929C8.53239 14.1054 8.76131 14 9 14ZM9 4.5C9.75805 4.50003 10.4924 4.79335 11.077 5.3296C11.6616 5.86585 12.0598 6.61154 12.2034 7.43858C12.3469 8.26562 12.2268 9.12239 11.8636 9.86171C11.5004 10.601 10.9169 11.1768 10.2132 11.49C10.109 11.5326 10.015 11.6014 9.9387 11.691C9.8991 11.741 9.8928 11.805 9.8937 11.871L9.9 12C9.89975 12.2549 9.81191 12.5 9.65444 12.6854C9.49696 12.8707 9.28174 12.9822 9.05274 12.9972C8.82375 13.0121 8.59826 12.9293 8.42235 12.7657C8.24644 12.6021 8.13339 12.3701 8.1063 12.117L8.1 12V11.75C8.1 10.597 8.937 9.905 9.5436 9.634C9.79048 9.52446 10.0058 9.34227 10.1666 9.10699C10.3273 8.87171 10.4273 8.59222 10.4558 8.29856C10.4844 8.00489 10.4404 7.70813 10.3286 7.44014C10.2168 7.17215 10.0414 6.94307 9.82128 6.77748C9.60115 6.61189 9.34457 6.51606 9.07911 6.50027C8.81366 6.48448 8.54934 6.54934 8.31455 6.68787C8.07977 6.8264 7.88338 7.03338 7.74647 7.28658C7.60957 7.53978 7.53733 7.82962 7.5375 8.125C7.5375 8.39022 7.44268 8.64457 7.2739 8.83211C7.10511 9.01964 6.87619 9.125 6.6375 9.125C6.3988 9.125 6.16989 9.01964 6.0011 8.83211C5.83232 8.64457 5.7375 8.39022 5.7375 8.125C5.7375 7.16359 6.08123 6.24156 6.69306 5.56174C7.3049 4.88192 8.13473 4.5 9 4.5Z" fill="black"/>
</svg>
