<svg width="23" height="26" viewBox="0 0 23 26" fill="none" xmlns="http://www.w3.org/2000/svg">
<path fill-rule="evenodd" clip-rule="evenodd" d="M10.25 0.333328C8.66868 0.333463 7.11033 0.711753 5.70496 1.43664C4.29958 2.16152 3.08793 3.21198 2.1711 4.50037C1.25427 5.78877 0.658835 7.27773 0.434484 8.84305C0.210132 10.4084 0.363365 12.0046 0.881399 13.4987C1.39943 14.9927 2.26724 16.3412 3.41243 17.4317C4.55762 18.5221 5.94698 19.3229 7.46459 19.7672C8.9822 20.2115 10.5841 20.2864 12.1365 19.9857C13.689 19.685 15.147 19.0175 16.389 18.0387L20.6497 22.2993C20.8697 22.5118 21.1644 22.6294 21.4703 22.6268C21.7762 22.6241 22.0688 22.5014 22.2851 22.2851C22.5014 22.0688 22.6241 21.7762 22.6268 21.4703C22.6294 21.1644 22.5118 20.8697 22.2993 20.6497L18.0387 16.389C19.1913 14.9267 19.909 13.1695 20.1096 11.3183C20.3102 9.46722 19.9856 7.59702 19.1729 5.92177C18.3602 4.24652 17.0924 2.83391 15.5143 1.8456C13.9363 0.857286 12.1119 0.333203 10.25 0.333328ZM2.66666 10.25C2.66666 8.23877 3.46561 6.30992 4.88776 4.88777C6.30991 3.46562 8.23877 2.66666 10.25 2.66666C12.2612 2.66666 14.1901 3.46562 15.6122 4.88777C17.0344 6.30992 17.8333 8.23877 17.8333 10.25C17.8333 12.2612 17.0344 14.1901 15.6122 15.6122C14.1901 17.0344 12.2612 17.8333 10.25 17.8333C8.23877 17.8333 6.30991 17.0344 4.88776 15.6122C3.46561 14.1901 2.66666 12.2612 2.66666 10.25Z" fill="#141414"/>
</svg>
