<svg width="38" height="38" viewBox="0 0 38 38" fill="none" xmlns="http://www.w3.org/2000/svg">
<path d="M32.553 5.39758C32.553 5.39758 35.5072 4.24555 35.26 7.04312C35.1787 8.19515 34.4403 12.2276 33.8654 16.5886L31.896 29.5081C31.896 29.5081 31.7317 31.4008 30.2542 31.73C28.7775 32.0585 26.5616 30.578 26.151 30.2488C25.8225 30.0016 19.9962 26.2984 17.9446 24.4886C17.3697 23.9943 16.7127 23.0073 18.0267 21.8553L26.6438 13.626C27.6285 12.6375 28.6132 10.3334 24.51 13.1318L13.0201 20.9489C13.0201 20.9489 11.7069 21.7724 9.24542 21.0317L3.91034 19.3854C3.91034 19.3854 1.94086 18.1513 5.30571 16.9171C13.5129 13.0497 23.6074 9.10005 32.5522 5.39682" fill="black"/>
</svg>
