<svg width="20" height="20" viewBox="0 0 20 20" fill="none" xmlns="http://www.w3.org/2000/svg">
<path d="M6.34663 16.6667C5.97608 16.6667 5.65913 16.5347 5.3958 16.2709C5.13246 16.007 5.00052 15.6906 4.99996 15.3217V5.00002H4.5833C4.46497 5.00002 4.36608 4.96002 4.28663 4.88002C4.20719 4.80002 4.16719 4.70086 4.16663 4.58252C4.16608 4.46419 4.20608 4.3653 4.28663 4.28586C4.36719 4.20641 4.46608 4.16669 4.5833 4.16669H7.49996C7.49996 3.99447 7.56385 3.84447 7.69163 3.71669C7.81941 3.58891 7.96941 3.52502 8.14163 3.52502H11.8583C12.0305 3.52502 12.1805 3.58891 12.3083 3.71669C12.4361 3.84447 12.5 3.99447 12.5 4.16669H15.4166C15.535 4.16669 15.6339 4.20669 15.7133 4.28669C15.7927 4.36669 15.8327 4.46586 15.8333 4.58419C15.8339 4.70252 15.7939 4.80141 15.7133 4.88086C15.6327 4.9603 15.5339 5.00002 15.4166 5.00002H15V15.3209C15 15.6909 14.868 16.0075 14.6041 16.2709C14.3402 16.5342 14.0236 16.6661 13.6541 16.6667H6.34663ZM14.1666 5.00002H5.8333V15.3209C5.8333 15.4703 5.88135 15.5931 5.97746 15.6892C6.07358 15.7853 6.19663 15.8334 6.34663 15.8334H13.6541C13.8036 15.8334 13.9264 15.7853 14.0225 15.6892C14.1186 15.5931 14.1666 15.4703 14.1666 15.3209V5.00002ZM8.58996 14.1667C8.7083 14.1667 8.80746 14.1267 8.88746 14.0467C8.96746 13.9667 9.00719 13.8678 9.00663 13.75V7.08336C9.00663 6.96502 8.96663 6.86614 8.88663 6.78669C8.80663 6.70725 8.70746 6.66725 8.58913 6.66669C8.4708 6.66614 8.37191 6.70614 8.29246 6.78669C8.21302 6.86725 8.1733 6.96614 8.1733 7.08336V13.75C8.1733 13.8684 8.2133 13.9672 8.2933 14.0467C8.3733 14.1267 8.47219 14.1667 8.58996 14.1667ZM11.4108 14.1667C11.5291 14.1667 11.628 14.1267 11.7075 14.0467C11.7869 13.9667 11.8266 13.8678 11.8266 13.75V7.08336C11.8266 6.96502 11.7866 6.86614 11.7066 6.78669C11.6266 6.70669 11.5277 6.66669 11.41 6.66669C11.2916 6.66669 11.1925 6.70669 11.1125 6.78669C11.0325 6.86669 10.9927 6.96558 10.9933 7.08336V13.75C10.9933 13.8684 11.0333 13.9672 11.1133 14.0467C11.1933 14.1261 11.2925 14.1661 11.4108 14.1667Z" fill="black"/>
</svg>
