<svg width="37" height="38" viewBox="0 0 37 38" fill="none" xmlns="http://www.w3.org/2000/svg">
<path d="M6.9038 7.07885C4.98755 9.01335 4.98755 12.1067 4.98755 18.3026V19.3976C4.98755 25.5843 4.98755 28.6777 6.9038 30.6213C8.8383 32.5376 11.9317 32.5376 18.1275 32.5376H19.2225C25.4093 32.5376 28.5027 32.5376 30.4463 30.6213C32.3625 28.6868 32.3625 25.5935 32.3625 19.3976V18.3026C32.3625 12.1158 32.3625 9.02247 30.4463 7.07885C28.5118 5.1626 25.4184 5.1626 19.2225 5.1626H18.1275C11.9408 5.1626 8.84742 5.1626 6.9038 7.07885ZM9.6048 13.4937H12.7438C12.8442 18.7132 15.1437 20.9215 16.9687 21.3777V13.4937H19.916V17.9923C21.7137 17.8007 23.6117 15.7476 24.2504 13.4846H27.1887C26.9489 14.656 26.4703 15.7653 25.7826 16.7435C25.0949 17.7216 24.213 18.5474 23.1919 19.1695C24.3317 19.7365 25.3382 20.5389 26.1451 21.5235C26.9521 22.5082 27.541 23.6528 27.873 24.8817H24.6337C23.9402 22.7191 22.2064 21.0401 19.916 20.812V24.8817H19.551C13.3095 24.8817 9.7508 20.6112 9.6048 13.4937Z" fill="black"/>
</svg>
