<svg width="37" height="38" viewBox="0 0 37 38" fill="none" xmlns="http://www.w3.org/2000/svg">
<path d="M18.5016 3.6416C26.9011 3.6416 33.7099 10.4504 33.7099 18.8499C33.7099 27.2495 26.9011 34.0583 18.5016 34.0583C15.8139 34.0629 13.1735 33.3516 10.8518 31.9975L3.29932 34.0583L5.35549 26.5028C4.00036 24.1803 3.28853 21.5388 3.29324 18.8499C3.29324 10.4504 10.102 3.6416 18.5016 3.6416ZM13.3186 11.702L13.0144 11.7142C12.8177 11.7277 12.6256 11.7794 12.4487 11.8663C12.2838 11.9598 12.1332 12.0766 12.0015 12.213C11.819 12.3849 11.7156 12.5339 11.6046 12.6784C11.0421 13.4098 10.7392 14.3077 10.7438 15.2304C10.7468 15.9756 10.9415 16.701 11.2457 17.3793C11.8677 18.7511 12.8912 20.2035 14.2417 21.5494C14.5672 21.8734 14.8865 22.1988 15.2303 22.5015C16.9084 23.9788 18.9081 25.0442 21.0703 25.6131L21.9341 25.7454C22.2154 25.7606 22.4968 25.7393 22.7797 25.7256C23.2225 25.7023 23.6549 25.5824 24.0465 25.3743C24.2455 25.2714 24.4399 25.1598 24.629 25.0397C24.629 25.0397 24.6934 24.9961 24.8191 24.9028C25.0244 24.7508 25.1507 24.6428 25.321 24.4649C25.4487 24.333 25.5552 24.1799 25.6404 24.0056C25.759 23.7577 25.8776 23.2847 25.9263 22.8908C25.9628 22.5897 25.9521 22.4254 25.9476 22.3235C25.9415 22.1608 25.8061 21.992 25.6586 21.9205L24.7735 21.5236C24.7735 21.5236 23.4504 20.9472 22.6413 20.5791C22.5566 20.5423 22.4659 20.5211 22.3736 20.5168C22.2695 20.5059 22.1644 20.5175 22.0652 20.5508C21.966 20.5841 21.8751 20.6384 21.7987 20.7099C21.7911 20.7069 21.6892 20.7936 20.5897 22.1258C20.5266 22.2106 20.4396 22.2747 20.34 22.3099C20.2403 22.3451 20.1324 22.3499 20.03 22.3235C19.9309 22.2971 19.8338 22.2636 19.7395 22.2231C19.5509 22.1441 19.4855 22.1136 19.3563 22.0589C18.4831 21.6785 17.6749 21.1638 16.961 20.5335C16.7693 20.3662 16.5914 20.1837 16.4089 20.0073C15.8106 19.4342 15.2892 18.786 14.8577 18.0789L14.7679 17.9344C14.7044 17.8368 14.6524 17.7321 14.6128 17.6226C14.555 17.3991 14.7056 17.2196 14.7056 17.2196C14.7056 17.2196 15.0751 16.8151 15.247 16.5961C15.4143 16.3831 15.5557 16.1763 15.647 16.0288C15.8264 15.7398 15.8827 15.4433 15.7884 15.2136C15.3626 14.1734 14.9225 13.1387 14.4683 12.1096C14.3786 11.9058 14.1124 11.7598 13.8706 11.7309C13.7885 11.7208 13.7064 11.7127 13.6243 11.7066C13.4201 11.6949 13.2153 11.6969 13.0114 11.7127L13.3186 11.702Z" fill="black"/>
</svg>
